<svg width="140" height="40" viewBox="0 0 140 40" fill="none" xmlns="http://www.w3.org/2000/svg">
<rect width="40" height="40" fill="white"/>
<path d="M16.3723 1.74775C16.1588 2.72072 15.9452 3.69369 15.8918 3.89189C15.8385 4.18018 15.5003 4.3964 14.7173 4.68468C14.1122 4.91892 13.1513 5.33334 12.5818 5.62162L11.5496 6.14415L9.78781 5.04504C8.80903 4.45045 7.95482 3.96396 7.88364 3.96396C7.79466 3.96396 6.79808 4.91892 5.64134 6.09009L3.5592 8.21622L4.71594 10.0541L5.87269 11.9099L5.3566 12.9369C5.08966 13.4955 4.71595 14.3964 4.55578 14.9189C4.32443 15.5856 4.12868 15.8919 3.86174 15.9459C3.64818 16 2.70499 16.2342 1.7796 16.4504L0.0889801 16.8649L0.0355915 20.1982L0 23.5496L1.54825 23.8559C4.37782 24.4144 4.36002 24.4144 4.62697 25.2613C4.75154 25.6937 5.10746 26.5586 5.42779 27.2072L6.01505 28.3604L4.94729 29.9459C4.37782 30.8288 3.86174 31.6577 3.79055 31.8198C3.71937 32.018 4.30664 32.7387 5.71252 34.1622C6.81588 35.2973 7.81245 36.2162 7.88364 36.2162C7.97262 36.2162 8.84462 35.7297 9.80561 35.1351L11.5852 34.0541L12.9555 34.7568C13.7029 35.1351 14.6283 35.5495 15.002 35.6757C15.8029 35.9279 15.874 36.1081 16.3189 38.3784L16.6215 40L19.7358 39.964L22.8501 39.9099L23.0814 38.9189C23.7933 36 23.7577 36.0721 24.8254 35.7478C25.3593 35.6036 26.2847 35.2793 26.872 35.027L27.9575 34.5946L29.6126 35.7478L31.2676 36.9189L32.4066 35.964C35.2717 33.5315 37.2293 30.9369 38.3682 28.018C38.7419 27.0811 38.9733 26.2522 38.9199 26.1802C38.8487 26.1081 38.4038 26.3423 37.9411 26.6667C32.2286 30.8108 27.5838 33.1892 23.1348 34.3063C21.2484 34.7748 18.6858 35.1531 18.6858 34.973C18.6858 34.9189 19.2909 33.8559 20.0027 32.6126L21.3374 30.3604L19.7002 30.2523C13.5072 29.8018 8.9514 23.8559 10.2149 17.8378C10.9801 14.1982 13.614 11.2072 17.1198 10.018C19.0061 9.36937 21.6222 9.35135 23.4907 9.98198L24.7721 10.3964L24.6831 10.018C24.6475 9.8018 24.0958 7.47748 23.4729 4.82883L22.334 0H19.5578H16.7638L16.3723 1.74775Z" fill="#0C52A2"/>
<path d="M24.7365 0.52241C24.7365 0.630518 25.0569 2.03592 25.4306 3.65754C27.6017 12.7747 27.7975 18.144 26.1424 23.135C25.4128 25.3693 23.8289 28.6485 22.1205 31.4774C21.035 33.2612 20.7502 33.8738 20.9816 33.8738C22.1205 33.8738 26.7119 32.2161 29.4347 30.8107C32.6202 29.1711 36.8378 26.2882 39.0979 24.1981L39.8632 23.5134L39.9699 21.4413C40.3081 15.2431 37.781 8.91881 33.3854 4.97286C31.3211 3.11701 29.7016 2.108 27.1924 1.09899C25.5907 0.468358 24.7365 0.25214 24.7365 0.52241Z" fill="#960614"/>
<path d="M26.1522 1.88811C26.1522 1.96974 26.3671 3.03136 26.6181 4.25622C28.0756 11.1432 29.362 17.8476 28.251 21.6177C27.7611 23.3054 26.698 25.7825 25.5512 27.9195C24.8225 29.2669 24.6313 29.7297 24.7865 29.7297C25.5512 29.7297 28.6333 28.4775 30.4609 27.4159C32.5993 26.1773 35.4307 23.9996 36.9478 22.4207L37.4615 21.9036L37.5333 20.3384C37.7602 15.6562 35.586 8.96811 32.6353 5.98739C31.2495 4.58559 29.4852 3.08577 27.8008 2.32361C26.7256 1.84721 26.1522 1.68379 26.1522 1.88811Z" fill="#CE0323"/>
<path d="M53.968 28V10.336H57.904V28H53.968ZM64.6 28L59.464 20.464H63.784L69.16 28H64.6ZM56.848 22.384V19.288H61.168C61.744 19.288 62.24 19.176 62.656 18.952C63.088 18.712 63.416 18.384 63.64 17.968C63.88 17.536 64 17.04 64 16.48C64 15.92 63.88 15.432 63.64 15.016C63.416 14.584 63.088 14.256 62.656 14.032C62.24 13.792 61.744 13.672 61.168 13.672H56.848V10.336H60.856C62.312 10.336 63.576 10.56 64.648 11.008C65.72 11.44 66.544 12.088 67.12 12.952C67.696 13.816 67.984 14.904 67.984 16.216V16.6C67.984 17.896 67.688 18.976 67.096 19.84C66.52 20.688 65.696 21.328 64.624 21.76C63.568 22.176 62.312 22.384 60.856 22.384H56.848ZM77.0729 28.456C75.9529 28.456 74.9609 28.264 74.0969 27.88C73.2489 27.496 72.5369 26.984 71.9609 26.344C71.4009 25.688 70.9689 24.96 70.6649 24.16C70.3769 23.344 70.2329 22.512 70.2329 21.664V21.184C70.2329 20.304 70.3769 19.464 70.6649 18.664C70.9689 17.848 71.4009 17.12 71.9609 16.48C72.5209 15.84 73.2169 15.336 74.0489 14.968C74.8969 14.584 75.8569 14.392 76.9289 14.392C78.3369 14.392 79.5209 14.712 80.4809 15.352C81.4569 15.976 82.2009 16.8 82.7129 17.824C83.2249 18.832 83.4809 19.936 83.4809 21.136V22.432H71.8409V20.248H81.1529L79.9049 21.256C79.9049 20.472 79.7929 19.8 79.5689 19.24C79.3449 18.68 79.0089 18.256 78.5609 17.968C78.1289 17.664 77.5849 17.512 76.9289 17.512C76.2569 17.512 75.6889 17.664 75.2249 17.968C74.7609 18.272 74.4089 18.72 74.1689 19.312C73.9289 19.888 73.8089 20.6 73.8089 21.448C73.8089 22.232 73.9209 22.92 74.1449 23.512C74.3689 24.088 74.7209 24.536 75.2009 24.856C75.6809 25.176 76.3049 25.336 77.0729 25.336C77.7769 25.336 78.3529 25.2 78.8009 24.928C79.2489 24.656 79.5529 24.32 79.7129 23.92H83.2409C83.0489 24.8 82.6729 25.584 82.1129 26.272C81.5529 26.96 80.8489 27.496 80.0009 27.88C79.1529 28.264 78.1769 28.456 77.0729 28.456ZM86.0254 28V14.848H89.0734V20.512H88.8574C88.8574 19.168 89.0254 18.048 89.3614 17.152C89.6974 16.256 90.2014 15.584 90.8734 15.136C91.5454 14.672 92.3694 14.44 93.3454 14.44H93.5134C94.5054 14.44 95.3294 14.672 95.9854 15.136C96.6574 15.584 97.1614 16.256 97.4974 17.152C97.8494 18.048 98.0254 19.168 98.0254 20.512H97.0894C97.0894 19.168 97.2574 18.048 97.5934 17.152C97.9454 16.256 98.4574 15.584 99.1294 15.136C99.8014 14.672 100.625 14.44 101.601 14.44H101.769C102.761 14.44 103.593 14.672 104.265 15.136C104.953 15.584 105.473 16.256 105.825 17.152C106.177 18.048 106.353 19.168 106.353 20.512V28H102.513V20.296C102.513 19.576 102.321 18.992 101.937 18.544C101.569 18.096 101.041 17.872 100.353 17.872C99.6654 17.872 99.1214 18.104 98.7214 18.568C98.3214 19.016 98.1214 19.616 98.1214 20.368V28H94.2574V20.296C94.2574 19.576 94.0654 18.992 93.6814 18.544C93.3134 18.096 92.7934 17.872 92.1214 17.872C91.4174 17.872 90.8654 18.104 90.4654 18.568C90.0654 19.016 89.8654 19.616 89.8654 20.368V28H86.0254ZM117.571 28V24.112H116.923V19.888C116.923 19.216 116.763 18.712 116.443 18.376C116.123 18.04 115.611 17.872 114.907 17.872C114.555 17.872 114.091 17.88 113.515 17.896C112.939 17.912 112.347 17.936 111.739 17.968C111.131 18 110.579 18.032 110.083 18.064V14.824C110.451 14.792 110.883 14.76 111.379 14.728C111.875 14.696 112.387 14.672 112.915 14.656C113.443 14.64 113.939 14.632 114.403 14.632C115.747 14.632 116.875 14.824 117.787 15.208C118.715 15.592 119.419 16.176 119.899 16.96C120.379 17.728 120.619 18.72 120.619 19.936V28H117.571ZM113.371 28.336C112.427 28.336 111.595 28.168 110.875 27.832C110.171 27.496 109.619 27.016 109.219 26.392C108.819 25.752 108.619 24.992 108.619 24.112C108.619 23.152 108.867 22.368 109.363 21.76C109.859 21.136 110.555 20.68 111.451 20.392C112.347 20.088 113.379 19.936 114.547 19.936H117.355V22.072H114.523C113.851 22.072 113.331 22.24 112.963 22.576C112.611 22.896 112.435 23.336 112.435 23.896C112.435 24.424 112.611 24.856 112.963 25.192C113.331 25.512 113.851 25.672 114.523 25.672C114.955 25.672 115.339 25.6 115.675 25.456C116.027 25.296 116.315 25.032 116.539 24.664C116.763 24.296 116.891 23.784 116.923 23.128L117.835 24.088C117.755 25 117.531 25.768 117.163 26.392C116.811 27.016 116.315 27.496 115.675 27.832C115.051 28.168 114.283 28.336 113.371 28.336ZM133.405 32.8V24.112L134.437 22.72C134.405 23.904 134.165 24.928 133.717 25.792C133.285 26.64 132.677 27.296 131.893 27.76C131.109 28.208 130.189 28.432 129.133 28.432C128.221 28.432 127.389 28.264 126.637 27.928C125.885 27.576 125.237 27.104 124.693 26.512C124.165 25.904 123.757 25.192 123.469 24.376C123.197 23.56 123.061 22.68 123.061 21.736V21.184C123.061 20.24 123.205 19.36 123.493 18.544C123.797 17.728 124.221 17.016 124.765 16.408C125.325 15.8 125.981 15.328 126.733 14.992C127.501 14.64 128.349 14.464 129.277 14.464C130.365 14.464 131.301 14.704 132.085 15.184C132.885 15.648 133.509 16.328 133.957 17.224C134.405 18.104 134.645 19.184 134.677 20.464H134.221V14.848H137.269V32.8H133.405ZM130.261 25.192C130.853 25.192 131.389 25.064 131.869 24.808C132.365 24.536 132.757 24.144 133.045 23.632C133.349 23.12 133.501 22.504 133.501 21.784V20.896C133.501 20.192 133.349 19.6 133.045 19.12C132.741 18.64 132.341 18.272 131.845 18.016C131.349 17.76 130.821 17.632 130.261 17.632C129.605 17.632 129.021 17.8 128.509 18.136C128.013 18.456 127.621 18.904 127.333 19.48C127.045 20.04 126.901 20.704 126.901 21.472C126.901 22.224 127.045 22.88 127.333 23.44C127.621 24 128.013 24.432 128.509 24.736C129.021 25.04 129.605 25.192 130.261 25.192Z" fill="#0C52A2"/>
</svg>
