<svg width="80" height="80" viewBox="0 0 80 80" fill="none" xmlns="http://www.w3.org/2000/svg">
<path d="M32.7447 3.4955C32.3176 5.44145 31.8905 7.38739 31.7837 7.78379C31.6769 8.36036 31.0007 8.79279 29.4346 9.36937C28.2245 9.83784 26.3025 10.6667 25.1636 11.2432L23.0992 12.2883L19.5756 10.0901C17.6181 8.9009 15.9096 7.92793 15.7673 7.92793C15.5893 7.92793 13.5962 9.83783 11.2827 12.1802L7.11841 16.4324L9.43189 20.1081L11.7454 23.8198L10.7132 25.8739C10.1793 26.991 9.43189 28.7928 9.11156 29.8378C8.64887 31.1712 8.25735 31.7838 7.72347 31.8919C7.29637 32 5.40999 32.4685 3.5592 32.9009L0.17796 33.7297L0.071183 40.3964L0 47.0991L3.09651 47.7117C8.75564 48.8288 8.72005 48.8288 9.25393 50.5225C9.50307 51.3874 10.2149 53.1171 10.8556 54.4144L12.0301 56.7207L9.89459 59.8919C8.75564 61.6577 7.72347 63.3153 7.58111 63.6396C7.43874 64.036 8.61328 65.4775 11.425 68.3243C13.6318 70.5946 15.6249 72.4324 15.7673 72.4324C15.9452 72.4324 17.6892 71.4595 19.6112 70.2703L23.1704 68.1081L25.911 69.5135C27.4059 70.2703 29.2567 71.0991 30.0041 71.3513C31.6057 71.8559 31.7481 72.2162 32.6379 76.7568L33.243 80L39.4716 79.9279L45.7002 79.8198L46.1629 77.8378C47.5866 72 47.5154 72.1441 49.6509 71.4955C50.7187 71.2072 52.5694 70.5586 53.744 70.0541L55.9151 69.1892L59.2251 71.4955L62.5352 73.8378L64.8131 71.9279C70.5434 67.063 74.4585 61.8739 76.7364 56.036C77.4839 54.1622 77.9466 52.5045 77.8398 52.3604C77.6974 52.2162 76.8076 52.6847 75.8822 53.3333C64.4572 61.6216 55.1677 66.3784 46.2696 68.6126C42.4969 69.5496 37.3716 70.3063 37.3716 69.9459C37.3716 69.8378 38.5818 67.7117 40.0054 65.2252L42.6749 60.7207L39.4004 60.5045C27.0144 59.6036 17.9028 47.7117 20.4298 35.6757C21.9603 28.3964 27.2279 22.4144 34.2395 20.036C38.0123 18.7387 43.2443 18.7027 46.9815 19.964L49.5441 20.7928L49.3662 20.036C49.295 19.6036 48.1916 14.955 46.9459 9.65765L44.668 0H39.1156H33.5277L32.7447 3.4955Z" fill="#0C52A2"/>
<path d="M49.473 1.04482C49.473 1.26104 50.1136 4.07184 50.861 7.31509C55.2033 25.5493 55.5948 36.2881 52.2847 46.2701C50.8255 50.7385 47.6578 57.2971 44.2409 62.9547C42.0698 66.5223 41.5003 67.7475 41.963 67.7475C44.2409 67.7475 53.4237 64.4322 58.8693 61.6214C65.2402 58.3421 73.6755 52.5764 78.1957 48.3962L79.7262 47.0268L79.9397 42.8827C80.616 30.4863 75.5619 17.8376 66.7707 9.94573C62.642 6.23401 59.4031 4.216 54.3847 2.19798C51.1814 0.936716 49.473 0.504279 49.473 1.04482Z" fill="#960614"/>
<path d="M52.3043 3.77623C52.3043 3.93947 52.7343 6.06272 53.2361 8.51245C56.1511 22.2865 58.7241 35.6952 56.5021 43.2353C55.5222 46.6108 53.396 51.5651 51.1024 55.8389C49.6449 58.5337 49.2627 59.4595 49.573 59.4595C51.1024 59.4595 57.2666 56.955 60.9219 54.8317C65.1986 52.3546 70.8613 47.9993 73.8955 44.8414L74.9231 43.8072L75.0665 40.6768C75.5203 31.3124 71.172 17.9362 65.2705 11.9748C62.499 9.17119 58.9704 6.17154 55.6016 4.64722C53.4511 3.69442 52.3043 3.36758 52.3043 3.77623Z" fill="#CE0323"/>
</svg>
